<?xml version="1.0" encoding="utf-8"?>
<!-- Generator: Adobe Illustrator 15.1.0, SVG Export Plug-In . SVG Version: 6.00 Build 0)  -->
<!DOCTYPE svg PUBLIC "-//W3C//DTD SVG 1.1//EN" "http://www.w3.org/Graphics/SVG/1.1/DTD/svg11.dtd">
<svg version="1.1" id="Behance" xmlns="http://www.w3.org/2000/svg" xmlns:xlink="http://www.w3.org/1999/xlink" x="0px" y="0px"
	 width="288px" height="288px" viewBox="0 0 288 288" enable-background="new 0 0 288 288" xml:space="preserve">
<g>
	<path fill-rule="evenodd" clip-rule="evenodd" fill="#FFFFFF" d="M72.391,98.59c10.044,0,20.256,0,30.426,0
		c5.256,0,10.444-0.181,15.119,0.125c9.325,0.611,16.426,3.792,20.555,9.871c2.054,3.026,3.478,6.947,3.624,11.558
		c0.161,5.141-0.707,9.209-2.625,12.433c-1.878,3.155-4.668,5.28-8.122,7.059c8.241,3.13,13.158,9.373,13.619,19.868
		c0.242,5.493-1.125,9.963-3.124,13.619c-1.95,3.57-4.613,6.748-7.748,8.935c-3.437,2.4-7.404,3.693-12.307,4.436
		c-4.867,0.736-10.28,0.688-16.056,0.688c-11.134-0.001-22.396,0-33.424,0c0-29.468,0-58.935,0-88.403
		C72.323,98.689,72.317,98.601,72.391,98.59z M90.009,114.209c0,6.435,0,12.87,0,19.305c4.061,0,8.296,0,12.557,0
		c4.169,0,8.513,0.289,12.37-0.188c3.382-0.418,6.749-1.784,8.247-4.311c1.521-2.564,1.897-7.209,0.313-10.245
		c-0.755-1.446-1.802-2.449-3.375-3.187c-1.809-0.848-4.094-1.165-6.497-1.375c-7.466-0.651-15.895,0.1-23.553-0.188
		C89.998,114.032,90.004,114.121,90.009,114.209z M90.009,148.383c0,7.809,0,15.619,0,23.429c4.005,0,8.013,0,11.995,0
		c4.046,0,8.095,0.183,11.933-0.063c7.666-0.491,11.897-3.907,12.308-11.744c0.427-8.146-4.767-11.259-12.183-11.746
		c-3.782-0.248-7.876-0.062-11.933-0.062c-4.082,0-8.157,0-12.058,0C89.998,148.206,90.004,148.294,90.009,148.383z"/>
	<path fill-rule="evenodd" clip-rule="evenodd" fill="#FFFFFF" d="M201.84,102.776c0,3.665,0,7.331,0,10.996
		c-12.641,0-25.282,0-37.923,0c0-3.665,0-7.331,0-10.996C176.517,102.776,189.448,102.776,201.84,102.776z"/>
	<path fill-rule="evenodd" clip-rule="evenodd" fill="#FFFFFF" d="M215.647,159.254c-15.89,0-31.779,0-47.669,0
		c0.126,8.219,4.081,13.716,10.871,15.618c3.718,1.041,8.496,0.811,11.621-0.437c3.174-1.269,5.289-3.637,6.809-6.436
		c5.811,0,11.62,0,17.431,0c-0.433,3.366-1.73,5.957-3.374,8.248c-1.619,2.257-3.402,4.314-5.497,6.06
		c-4.296,3.58-9.593,5.855-16.432,6.746c-7.317,0.955-14.529-0.126-19.992-2.437c-5.199-2.198-10.096-5.617-13.183-9.995
		c-3.2-4.542-4.919-10.524-5.436-17.742c-0.534-7.453,0.423-14.683,2.688-20.243c3.312-8.133,9.316-13.906,17.868-16.868
		c2.937-1.018,6.219-1.639,9.87-1.812c6.272-0.297,11.623,0.764,15.994,2.498c4.395,1.745,7.989,4.356,10.684,7.748
		c2.77,3.278,5.081,7.249,6.371,12.121C215.575,147.241,215.682,152.967,215.647,159.254z M193.281,137.638
		c-2.7-2.292-6.387-3.854-11.371-3.562c-8.508,0.5-12.253,6.065-13.557,13.869c9.829,0,19.658,0,29.487,0
		C197.512,143.408,196.023,139.963,193.281,137.638z"/>
	<g>
		<path fill-rule="evenodd" clip-rule="evenodd" fill="#54B2AE" d="M141.301,0.753c2.902-0.138,5.799-0.032,8.684,0.062
			c8.136,0.268,16.418,1.403,23.74,2.937c9.943,2.082,18.983,5.126,27.24,8.684c4.169,1.796,8.199,3.83,12.058,5.935
			c3.858,2.104,7.591,4.38,11.121,6.81c10.741,7.396,20.148,15.702,28.487,25.365c13.754,15.937,24.592,35.366,30.552,59.228
			c3.518,14.087,5.094,31.638,3.435,48.418c-2.13,21.58-8.599,39.421-16.991,54.854c-2.102,3.861-4.424,7.539-6.811,11.122
			c-2.372,3.557-4.955,7.045-7.622,10.307c-8.09,9.894-17.323,18.534-27.802,26.052c-13.862,9.948-30.053,17.905-49.169,22.679
			c-7.239,1.808-14.875,3.029-23.115,3.687c-14.047,1.118-28.659-0.069-40.859-2.623c-9.935-2.08-18.955-5.189-27.24-8.685
			c-4.188-1.768-8.19-3.833-12.058-5.935c-3.846-2.093-7.572-4.399-11.12-6.812c-14.34-9.749-26.327-21.438-36.361-35.423
			c-9.961-13.883-17.9-30.04-22.679-49.17c-2.115-8.47-3.537-17.359-3.936-27.363c-0.277-6.949-0.139-14.368,0.5-21.054
			c1.543-16.152,5.75-30.536,11.058-42.795c1.802-4.164,3.832-8.202,5.935-12.058c2.113-3.873,4.386-7.62,6.81-11.121
			c4.919-7.105,10.175-13.798,16.119-19.743c1.518-1.518,2.993-3.024,4.499-4.498c1.522-1.491,3.145-2.866,4.748-4.249
			C66.474,21.6,85.906,10.771,109.751,4.814c8.43-2.105,17.375-3.537,27.364-3.936C138.482,0.824,139.889,0.821,141.301,0.753z
			 M72.328,98.777c0,29.469,0,58.936,0,88.403c11.029,0,22.29-0.001,33.424,0c5.776,0,11.189,0.049,16.056-0.688
			c4.903-0.742,8.871-2.035,12.307-4.436c3.134-2.187,5.797-5.364,7.748-8.935c1.998-3.656,3.365-8.126,3.124-13.619
			c-0.461-10.495-5.378-16.737-13.619-19.868c3.453-1.779,6.244-3.903,8.122-7.059c1.917-3.224,2.785-7.292,2.625-12.433
			c-0.146-4.611-1.569-8.532-3.624-11.558c-4.128-6.079-11.229-9.26-20.555-9.871c-4.675-0.306-9.863-0.125-15.119-0.125
			c-10.17,0-20.382,0-30.426,0C72.317,98.601,72.323,98.689,72.328,98.777z M163.917,102.776c0,3.665,0,7.331,0,10.996
			c12.641,0,25.282,0,37.923,0c0-3.665,0-7.331,0-10.996C189.448,102.776,176.517,102.776,163.917,102.776z M214.271,142.323
			c-1.29-4.872-3.602-8.843-6.371-12.121c-2.694-3.391-6.289-6.003-10.684-7.748c-4.371-1.734-9.722-2.795-15.994-2.498
			c-3.651,0.172-6.934,0.793-9.87,1.812c-8.552,2.962-14.556,8.735-17.868,16.868c-2.265,5.56-3.222,12.79-2.688,20.243
			c0.517,7.218,2.235,13.2,5.436,17.742c3.087,4.378,7.983,7.797,13.183,9.995c5.463,2.311,12.675,3.392,19.992,2.437
			c6.839-0.891,12.136-3.166,16.432-6.746c2.095-1.745,3.878-3.803,5.497-6.06c1.644-2.291,2.941-4.882,3.374-8.248
			c-5.811,0-11.62,0-17.431,0c-1.52,2.799-3.635,5.167-6.809,6.436c-3.125,1.247-7.903,1.478-11.621,0.437
			c-6.79-1.902-10.745-7.399-10.871-15.618c15.89,0,31.779,0,47.669,0C215.682,152.967,215.575,147.241,214.271,142.323z"/>
		<path fill-rule="evenodd" clip-rule="evenodd" fill="#54B2AE" d="M90.071,114.021c7.658,0.288,16.087-0.463,23.553,0.188
			c2.403,0.209,4.688,0.526,6.497,1.375c1.573,0.738,2.62,1.741,3.375,3.187c1.584,3.036,1.208,7.681-0.313,10.245
			c-1.499,2.527-4.865,3.893-8.247,4.311c-3.857,0.477-8.201,0.188-12.37,0.188c-4.261,0-8.496,0-12.557,0c0-6.436,0-12.87,0-19.305
			C90.004,114.121,89.998,114.032,90.071,114.021z"/>
		<path fill-rule="evenodd" clip-rule="evenodd" fill="#54B2AE" d="M197.841,147.945c-9.829,0-19.658,0-29.487,0
			c1.304-7.804,5.049-13.369,13.557-13.869c4.984-0.292,8.671,1.271,11.371,3.562C196.023,139.963,197.512,143.408,197.841,147.945z
			"/>
		<path fill-rule="evenodd" clip-rule="evenodd" fill="#54B2AE" d="M90.071,148.195c3.901,0,7.976,0,12.058,0
			c4.057,0,8.15-0.186,11.933,0.062c7.417,0.487,12.61,3.6,12.183,11.746c-0.411,7.837-4.642,11.253-12.308,11.744
			c-3.838,0.246-7.887,0.063-11.933,0.063c-3.982,0-7.99,0-11.995,0c0-7.81,0-15.62,0-23.429
			C90.004,148.294,89.998,148.206,90.071,148.195z"/>
	</g>
</g>
</svg>
