<?xml version="1.0" encoding="utf-8"?>
<!-- Generator: Adobe Illustrator 15.1.0, SVG Export Plug-In . SVG Version: 6.00 Build 0)  -->
<!DOCTYPE svg PUBLIC "-//W3C//DTD SVG 1.1//EN" "http://www.w3.org/Graphics/SVG/1.1/DTD/svg11.dtd">
<svg version="1.1" id="Layer_1" xmlns="http://www.w3.org/2000/svg" xmlns:xlink="http://www.w3.org/1999/xlink" x="0px" y="0px"
	 width="288px" height="288px" viewBox="0 0 288 288" enable-background="new 0 0 288 288" xml:space="preserve">
<path fill="#71C2F1" d="M144,288c79.532,0,144-64.477,144-144.004C288,64.472,223.531,0,144,0S0,64.472,0,143.996
	C0,223.523,64.468,288,144,288"/>
<path fill="#FFFFFF" d="M138.071,107.868c2.713,3.787,4.076,8.31,4.076,13.585c0,5.428-1.363,9.798-4.11,13.1
	c-1.545,1.849-3.802,3.543-6.795,5.065c4.54,1.662,7.963,4.279,10.286,7.859c2.307,3.575,3.464,7.925,3.464,13.037
	c0,5.271-1.315,10.011-3.969,14.189c-1.678,2.771-3.78,5.108-6.301,6.998c-2.836,2.179-6.176,3.665-10.045,4.474
	c-3.87,0.806-8.054,1.199-12.577,1.199H72V98.384h43.003C125.859,98.545,133.541,101.704,138.071,107.868z M89.743,113.841v19.633
	h21.638c3.853,0,6.995-0.74,9.417-2.212c2.398-1.472,3.613-4.08,3.613-7.809c0-4.155-1.596-6.887-4.778-8.222
	c-2.753-0.926-6.26-1.39-10.518-1.39H89.743z M89.743,148.195v23.73h21.605c3.861,0,6.871-0.521,9.012-1.562
	c3.911-1.948,5.854-5.644,5.854-11.108c0-4.639-1.876-7.814-5.663-9.549c-2.117-0.964-5.085-1.473-8.896-1.511H89.743z
	 M198.793,122.908c4.596,2.051,8.384,5.3,11.359,9.736c2.721,3.907,4.466,8.445,5.26,13.601c0.463,3.021,0.652,7.384,0.569,13.063
	h-47.939c0.281,6.603,2.555,11.232,6.889,13.882c2.63,1.654,5.787,2.478,9.492,2.478c3.9,0,7.093-1.006,9.54-3.014
	c1.348-1.089,2.531-2.601,3.548-4.531h17.57c-0.463,3.897-2.596,7.866-6.374,11.902c-5.896,6.391-14.148,9.59-24.756,9.59
	c-8.765,0-16.496-2.691-23.176-8.095c-6.714-5.394-10.046-14.183-10.046-26.338c0-11.411,3.018-20.149,9.055-26.239
	c6.05-6.073,13.89-9.124,23.53-9.124C189.044,119.82,194.205,120.849,198.793,122.908z M173.053,137.771
	c-2.43,2.509-3.959,5.907-4.589,10.186h29.659c-0.315-4.568-1.854-8.024-4.581-10.401c-2.761-2.361-6.16-3.543-10.22-3.543
	C178.915,134.012,175.484,135.265,173.053,137.771z M202.149,102.535h-38.134v11.07h38.134V102.535z"/>
</svg>
