<?xml version="1.0" encoding="utf-8"?>
<!-- Generator: Adobe Illustrator 15.1.0, SVG Export Plug-In . SVG Version: 6.00 Build 0)  -->
<!DOCTYPE svg PUBLIC "-//W3C//DTD SVG 1.1//EN" "http://www.w3.org/Graphics/SVG/1.1/DTD/svg11.dtd">
<svg version="1.1" id="Layer_1" xmlns="http://www.w3.org/2000/svg" xmlns:xlink="http://www.w3.org/1999/xlink" x="0px" y="0px"
	 width="360px" height="293.229px" viewBox="0 0 360 293.229" enable-background="new 0 0 360 293.229" xml:space="preserve">
<g>
	<path fill="#52BAB3" d="M360,55.567c0,9.095-5.461,16.467-12.199,16.467H12.199C5.461,72.033,0,64.661,0,55.567v-38.1
		C0,8.375,5.461,1.002,12.199,1.002H347.8c6.737,0,12.199,7.373,12.199,16.466L360,55.567L360,55.567z"/>
	<path fill="#52BAB3" d="M360,165.663c0,9.094-5.461,16.467-12.199,16.467H12.199C5.461,182.13,0,174.757,0,165.663v-38.099
		c0-9.094,5.461-16.467,12.199-16.467H347.8c6.737,0,12.199,7.373,12.199,16.467L360,165.663L360,165.663z"/>
	<path fill="#52BAB3" d="M360,275.761c0,9.094-5.461,16.467-12.199,16.467H12.199C5.461,292.228,0,284.855,0,275.761v-38.1
		c0-9.095,5.461-16.468,12.199-16.468H347.8c6.737,0,12.199,7.373,12.199,16.468L360,275.761L360,275.761z"/>
</g>
</svg>
