<?xml version="1.0" encoding="utf-8"?>
<!-- Generator: Adobe Illustrator 15.1.0, SVG Export Plug-In . SVG Version: 6.00 Build 0)  -->
<!DOCTYPE svg PUBLIC "-//W3C//DTD SVG 1.1//EN" "http://www.w3.org/Graphics/SVG/1.1/DTD/svg11.dtd">
<svg version="1.1" id="Layer_1" xmlns="http://www.w3.org/2000/svg" xmlns:xlink="http://www.w3.org/1999/xlink" x="0px" y="0px"
	 width="360px" height="293.229px" viewBox="0 0 360 293.229" enable-background="new 0 0 360 293.229" xml:space="preserve">
<g>
	<path fill="#52BAB3" d="M293.811,287.365c-6.432,6.43-15.506,7.78-20.271,3.017L36.233,53.075
		c-4.764-4.766-3.413-13.84,3.018-20.271l26.94-26.938c6.43-6.432,15.505-7.782,20.269-3.02l237.305,237.307
		c4.768,4.765,3.414,13.841-3.016,20.271l-26.94,26.939L293.811,287.365z"/>
	<path fill="#52BAB3" d="M320.749,32.804c6.431,6.431,7.782,15.505,3.018,20.271L86.46,290.382
		c-4.764,4.765-13.839,3.412-20.27-3.019l-26.939-26.939c-6.43-6.43-7.782-15.505-3.018-20.271L273.539,2.847
		c4.764-4.764,13.839-3.412,20.27,3.02L320.749,32.804L320.749,32.804z"/>
</g>
</svg>
