<?xml version="1.0" encoding="utf-8"?>
<!-- Generator: Adobe Illustrator 15.1.0, SVG Export Plug-In . SVG Version: 6.00 Build 0)  -->
<!DOCTYPE svg PUBLIC "-//W3C//DTD SVG 1.1//EN" "http://www.w3.org/Graphics/SVG/1.1/DTD/svg11.dtd">
<svg version="1.1" id="Linked_In" xmlns="http://www.w3.org/2000/svg" xmlns:xlink="http://www.w3.org/1999/xlink" x="0px" y="0px"
	 width="288px" height="288px" viewBox="0 0 288 288" enable-background="new 0 0 288 288" xml:space="preserve">
<g>
	<path fill-rule="evenodd" clip-rule="evenodd" fill="#54B2AE" d="M142.238,0.771c2.713-0.133,5.49,0.002,8.233,0.127
		c14.311,0.65,26.828,3.131,38.062,6.903c13.537,4.545,25.475,10.397,36.161,17.794c7.113,4.925,13.793,10.248,19.755,16.212
		c12.15,12.148,22.233,25.833,29.705,42.242c6.595,14.483,11.525,30.403,12.791,50.156c0.341,5.303,0.454,11.248,0.189,16.781
		c-0.907,19.05-5.666,36.393-11.903,50.664c-3.656,8.362-7.967,15.987-12.856,23.115c-9.775,14.235-21.623,26.367-35.654,36.287
		c-7.037,4.975-14.591,9.457-22.798,13.172c-14.386,6.509-30.623,11.481-50.095,12.729c-8.03,0.513-16.623,0.458-24.636-0.38
		c-16.014-1.675-30.221-5.899-42.62-11.209c-2.076-0.888-4.06-1.948-6.08-2.913c-6.04-2.888-11.708-6.271-17.035-9.941
		c-9.909-6.833-18.537-14.333-26.345-23.117c-9.114-10.251-17.095-21.906-23.178-35.274c-3.772-8.288-7.047-17.022-9.31-26.66
		c-1.714-7.298-2.917-15.056-3.546-23.18c-1.046-13.502,0.289-28.559,2.85-40.592c2.133-10.024,5.153-19,8.803-27.169
		c5.63-12.601,12.303-23.5,20.518-33.438C46.73,36.772,63.521,23.294,83.975,13.88c15.316-7.048,33.108-12.204,54.146-13.045
		C139.485,0.78,140.843,0.84,142.238,0.771z M84.292,72.965c-1.089,0.268-2.091,0.684-2.977,1.077
		c-2.069,0.919-3.472,2.017-4.812,3.356c-2.664,2.663-4.498,6.697-4.053,11.969c0.407,4.816,2.586,8.174,5.698,10.576
		c1.513,1.167,3.32,2.123,5.384,2.724c7.007,2.037,14.623-0.112,18.492-4.054c2.596-2.646,4.655-6.779,4.179-11.968
		c-0.459-4.974-2.702-8.435-5.573-10.703c-2.949-2.332-7.254-3.867-12.792-3.483C86.608,72.544,85.413,72.692,84.292,72.965z
		 M215.636,155.673c0-5.152-0.302-9.876-1.266-14.312c-1.874-8.621-5.893-15.635-11.779-20.392
		c-6.717-5.425-17.083-8.349-27.865-6.903c-3.942,0.529-7.457,1.522-10.514,2.977c-4.042,1.924-7.513,4.482-10.004,7.978
		c-0.651,0.768-1.274,1.916-1.647,2.851c-0.053,0.134-0.022,0.336-0.19,0.38c-0.136-3.529-0.026-9.403-0.064-13.679
		c-10.448,0-20.897,0-31.346,0c0.24,10.856,0.189,22.305,0.19,33.564c0,3.711,0.101,7.433,0,11.082
		c-0.313,11.161-0.008,22.14-0.128,33.501c-0.038,3.722-0.07,7.422-0.062,11.146c0.015,0.049,0.052,0.073,0.126,0.064
		c10.406-0.044,20.983,0.081,31.284-0.064c-0.113-13.527-0.064-27.629-0.064-41.353c0.002-3.711-0.076-7.092,0.064-10.135
		c0.079-1.697,0.215-2.983,0.759-4.306c0.501-1.21,1.062-2.3,1.774-3.42c2.632-4.141,6.757-7.322,13.3-7.283
		c9.76,0.059,14.316,6.479,15.451,15.326c0.385,2.989,0.319,6.239,0.319,9.817c0,13.785-0.002,27.729,0,41.417
		c10.552,0,21.108,0,31.662,0C215.636,187.981,215.636,171.461,215.636,155.673z M75.995,114.764c0,29.723,0,59.443,0,89.168
		c9.31,0,18.619,0,27.929,0c0-29.785,0-59.573,0-89.358c-9.288,0-18.576,0-27.864,0C75.985,114.584,75.99,114.674,75.995,114.764z"
		/>
	<path fill-rule="evenodd" clip-rule="evenodd" fill="#FFFFFF" d="M87.838,72.46c5.538-0.384,9.843,1.151,12.792,3.483
		c2.871,2.268,5.114,5.729,5.573,10.703c0.476,5.189-1.583,9.322-4.179,11.968c-3.869,3.942-11.485,6.091-18.492,4.054
		c-2.064-0.601-3.872-1.557-5.384-2.724c-3.112-2.401-5.291-5.759-5.698-10.576c-0.444-5.272,1.39-9.306,4.053-11.969
		c1.34-1.34,2.743-2.438,4.812-3.356c0.886-0.394,1.888-0.81,2.977-1.077C85.413,72.692,86.608,72.544,87.838,72.46z"/>
	<path fill-rule="evenodd" clip-rule="evenodd" fill="#FFFFFF" d="M76.06,114.574c9.288,0,18.576,0,27.864,0
		c0,29.785,0,59.573,0,89.358c-9.31,0-18.619,0-27.929,0c0-29.725,0-59.445,0-89.168C75.99,114.674,75.985,114.584,76.06,114.574z"
		/>
	<path fill-rule="evenodd" clip-rule="evenodd" fill="#FFFFFF" d="M215.636,203.932c-10.554,0-21.11,0-31.662,0
		c-0.002-13.688,0-27.632,0-41.417c0-3.578,0.065-6.828-0.319-9.817c-1.135-8.848-5.691-15.268-15.451-15.326
		c-6.543-0.039-10.668,3.142-13.3,7.283c-0.712,1.12-1.273,2.21-1.774,3.42c-0.544,1.322-0.68,2.608-0.759,4.306
		c-0.141,3.043-0.062,6.424-0.064,10.135c0,13.724-0.049,27.825,0.064,41.353c-10.301,0.146-20.878,0.021-31.284,0.064
		c-0.074,0.009-0.112-0.016-0.126-0.064c-0.008-3.725,0.024-7.425,0.062-11.146c0.12-11.361-0.185-22.34,0.128-33.501
		c0.101-3.649,0-7.371,0-11.082c-0.001-11.259,0.05-22.708-0.19-33.564c10.449,0,20.898,0,31.346,0
		c0.038,4.276-0.071,10.15,0.064,13.679c0.168-0.044,0.138-0.246,0.19-0.38c0.373-0.935,0.996-2.083,1.647-2.851
		c2.491-3.496,5.962-6.054,10.004-7.978c3.057-1.455,6.571-2.448,10.514-2.977c10.782-1.446,21.148,1.478,27.865,6.903
		c5.887,4.757,9.905,11.771,11.779,20.392c0.964,4.436,1.266,9.16,1.266,14.312C215.636,171.461,215.636,187.981,215.636,203.932z"
		/>
</g>
</svg>
