<?xml version="1.0" encoding="utf-8"?>
<!-- Generator: Adobe Illustrator 15.1.0, SVG Export Plug-In . SVG Version: 6.00 Build 0)  -->
<!DOCTYPE svg PUBLIC "-//W3C//DTD SVG 1.1//EN" "http://www.w3.org/Graphics/SVG/1.1/DTD/svg11.dtd">
<svg version="1.1" id="Layer_1" xmlns="http://www.w3.org/2000/svg" xmlns:xlink="http://www.w3.org/1999/xlink" x="0px" y="0px"
	 width="288px" height="288px" viewBox="0 0 288 288" enable-background="new 0 0 288 288" xml:space="preserve">
<path fill="#4E86C6" d="M144,288c79.541,0,144-64.476,144-144.004C288,64.471,223.541,0,144,0C64.467,0,0,64.471,0,143.996
	C0,223.524,64.467,288,144,288"/>
<path fill="#FFFFFF" d="M103.701,204.227H75.63v-89.827h28.071V204.227z M88.946,103.163h-0.202C78.586,103.163,72,96.296,72,87.599
	C72,78.726,78.784,72,89.144,72c10.353,0,16.723,6.709,16.925,15.573C106.069,96.276,99.497,103.163,88.946,103.163z M216,204.227
	h-31.828v-46.484c0-12.167-4.974-20.468-15.925-20.468c-8.377,0-13.027,5.602-15.196,11.005c-0.812,1.935-0.688,4.634-0.688,7.343
	v48.604h-31.531c0,0,0.41-82.34,0-89.827h31.531v14.098c1.864-6.165,11.936-14.961,28.021-14.961
	c19.943,0,35.615,12.923,35.615,40.742V204.227z"/>
</svg>
