<?xml version="1.0" encoding="utf-8"?>
<!-- Generator: Adobe Illustrator 15.1.0, SVG Export Plug-In . SVG Version: 6.00 Build 0)  -->
<!DOCTYPE svg PUBLIC "-//W3C//DTD SVG 1.1//EN" "http://www.w3.org/Graphics/SVG/1.1/DTD/svg11.dtd">
<svg version="1.1" id="Logo" xmlns="http://www.w3.org/2000/svg" xmlns:xlink="http://www.w3.org/1999/xlink" x="0px" y="0px"
	 width="729px" height="230.4px" viewBox="0 0 729 230.4" enable-background="new 0 0 729 230.4" xml:space="preserve">
<g>
	<path fill="#025E63" d="M109.744,0.052c9.284-0.675,15.02,5.234,16.54,12.153c0.503,2.027,0,5.737-0.848,7.594
		c-1.51,4.057-6.068,6.415-9.954,5.233c-1.353-0.344-3.207-2.361-1.856-5.233c0.503-1.008,1.685-2.357,2.532-3.376
		c0.848-1.013,2.87-1.687,1.352-5.062c-1.686-3.04-4.387-4.551-9.792-3.875C96.92,8.495,85.108,16.259,77.515,21.487
		c-5.908,4.051-75.43,49.107-23.113,49.61c33.742,0.34,66.144-14.685,99.391-18.05c45.562-4.56,1.008,26.994-16.038,37.62
		c-33.076,20.421-68.679,32.73-102.931,49.791C25.035,145.345,9.17,159.181,3.937,156.3c-6.918-3.88-4.716-11.79,6.587-16.019
		c27.167-10.295,51.802-18.235,78.465-29.868c18.727-8.098,59.898-25.646,71.375-43.365c8.268-12.656-47.243-0.844-48.595-0.515
		C87.809,70.59,47.312,84.767,22.5,73.292C6.811,66.03,44.946,39.713,47.813,37.51C57.605,30.094,94.055,1.235,109.744,0.052z
		 M486.729,99.281c-1.871,3.205-1.525,11.984,3.188,7.081C493.479,102.821,491.272,96.409,486.729,99.281z M728.537,144.833
		c-1.695-4.204-7.419-5.062-26.485-3.363c-8.447,0.832-30.891,7.416-39.839,5.89c-6.412-1.005-4.205-15.508-4.545-18.204
		c-1.353-10.468-4.89-11.146-10.643-12.167c-7.42-1.349-11.135,0.518-18.725,4.571c-11.305,6.07-16.886,11.795-18.55,9.433
		c-3.049-3.879,0.833-10.451-4.056-10.451c-6.586,0-8.111,2.37-15.017,6.083c-7.271,3.88-16.046,11.96-24.307,16.698
		c-3.705,2.025-12.481,6.566-16.536,5.221c-2.188-0.666-1.701-5.062,0.832-9.097c2.529-3.879,8.461-7.938,10.298-16.535
		c2.358-10.468-4.718-11.487-18.548-11.65c-19.592-0.172-30.727,8.253-38.316,19.903c-2.531,3.879-4.713,10.812-5.062,12.479
		c-1.173,5.758-19.569,7.432-22.779,2.532c-1.35-2.014-0.66-4.889-0.169-7.076c2.04-10.125,8.281-20.074,7.42-23.123
		c-2.188-7.756-6.412,1.869-9.78,11.992c-1.177,3.539-3.537,8.081-5.062,12.14c-5.894,15.702-20.249,13.004-27.006,10.472
		c-33.068-11.997,30.373-56.03,37.647-63.28c8.081-7.936,14.844-17.21,20.408-16.536c5.565,0.503,29.191,5.225,26.33,0
		c-1.7-2.876-6.08-2.026-9.792-2.198c-5.911-0.504-12.498-1.683-16.538-1.856c9.104-12.152,17.388-24.133,25.64-36.79
		c4.054-6.241,6.241-11.303,11.305-15.69c6.761-5.735-1.508-18.729-5.221-9.116c-6.741,17.719-16.865,33.25-28.346,49.111
		c-2.186,2.861-6.411,10.457-15.705,10.457c-6.233,0-15.675-2.694-20.072-2.186c-6.752,0.675-3.883,3.538-2.529,4.041
		c2.705,1.185,20.599,2.371,20.423,4.056c-0.839,7.091-23.462,23.115-27.5,27.167c-10.987,10.629-25.479,20.41-34.256,34.093
		c-0.694-1.187-9.29-0.513-21.268-2.53c-11.148-2.038-18.05-4.397-24.984-7.273c-5.062-2.013-8.083-6.41-7.419-9.103
		c2.705-10.802,44.896-13.662,48.267-11.645c3.362,2.023,7.591,9.788,11.647,1.858c2.532-4.898-6.243-6.92-17.062-7.594
		c-8.768-0.512-19.231,1.186-28.499,3.043c-6.937,1.348-13.348,4.387-19.416,8.096c-1.681,1.007-3.371-2.199-7.247-6.24
		c-2.877-3.039-8.442-4.559-10.296-4.898c-20.923-3.545-34.257,5.735-50.455,17.555c8.775-14.182-7.087-15.695-25.479-13.837
		c-17.718,1.857-37.637,8.774-42.023,10.284c16.878-20.249,30.721-43.703,46.913-65.133c3.036-4.042,12.828-5.901,12.153-14.009
		c-0.852-9.275-9.793-7.25-12.153-3.037c-5.396,9.957-8.438,19.918-14.684,29.021c-15.188,21.944-30.202,44.381-47.918,62.618
		c-13.505,14.008-23.794,11.31-41.002,15.516c-18.229,4.391-40.167,14.683-59.066,7.594c-22.106-8.097,9.45-21.437,11.98-22.443
		c3.381,12.318,25.14,5.911,45.561-1.355c19.407-6.912,28.348-12.987,27.339-17.203c-4.56-19.069-85.727,16.711-96.184,23.284
		c-21.104,13.511,9.95,26.657,21.927,25.815c23.966-1.689,40.168-7.936,59.066-11.3c8.604-1.522,17.546-1.859,23.958,4.888
		c3.55,3.715,14.011,5.238,17.72,4.891c17.889-1.354,31.392-4.202,47.925-10.293c-2.02,32.239,55.522-4.377,63.443-8.431
		c-5.063,3.368-7.422,10.962-5.898,20.421c2.186,12.831,15.861,8.424,15.345,5.239c-0.505-3.228-4.546,1.004-8.601-2.708
		c-2.029-3.21-1.354-15.529,4.724-23.786c5.739-7.938,17.051-13.346,18.904-13.85c0.675,6.084,5.395,7.769,11.297,10.975
		c5.062,2.697,14.002,5.23,19.581,6.412c10.636,2.354,24.476,2.354,23.125,5.728c-1.352,3.391-15.531,8.108-25.656,9.801
		c-18.556,3.019-41.348-0.168-37.464,8.08c4.389,9.637,64.128-9.101,69.191-15.841c0.837,16.191,19.729,18.894,34.755,17.542
		c5.226-0.519,8.107-2.353,14.346-4.718c6.242-2.366,13.004,1.352,22.117-0.686c11.477-2.53,10.443,1.867,19.561,3.702
		c11.824,2.368,29.363-10.446,32.239-5.226c5.728,10.807,20.423,0.516,25.143-1.672c9.95-4.574,31.208-25.312,33.248-19.763
		c2.188,5.582-22.779,24.993-12.656,24.824c3.021,0,10.958-7.769,17.545-12.998c4.719-3.711,13.667-9.117,18.558-11.65
		c25.481-12.992,26.149,1.009,25.481,9.285c-0.674,8.256-4.553,16.191,7.251,15.019c10.299-1.007,21.103-4.39,34.252-6.921
		c17.894-3.556,27.351,4.732,33.599,2.688C728.537,149.229,729.718,147.706,728.537,144.833z M187.371,102.993
		c0.509,1.351-3.375,6.241-11.14,9.274c-16.194,6.416-43.361,11.99-44.384,9.12c-0.836-2.53,17.388-12.656,33.416-17.386
		C176.402,100.626,186.861,101.299,187.371,102.993z M286.422,121.885c-9.113,10.633-39.322,20.758-57.039,22.458
		c-7.42,0.665-13.663-4.739-14.17-4.896c-5.908-8.938,8.776-21.938,26.659-26.496C262.795,107.715,304.813,100.292,286.422,121.885z
		 M350.877,111.425c-1.008,1.526-4.891,5.737-9.612,8.958c-15.86,10.789-53.83,27.841-56.195,22.939
		c-2.186-4.559,1.693-12.494,2.704-14.001c5.397-8.104,19.069-16.371,28.519-22.785C332.326,95.731,358.14,100.794,350.877,111.425z
		 M508.667,148.222c-2.531-2.043-1.192-15.873,8.604-22.777c9.111-6.249,19.071-10.303,30.861-8.455
		c11.649,1.87-0.16,15.879-11.625,23.64C525.703,148.222,512.039,150.915,508.667,148.222z"/>
	<g>
		<path fill="#025E63" d="M241.537,229.884l-30.04-35.939v35.939h-4.044v-42.345h4.044c3.549,4.553,8.611,10.449,15.026,18.039
			c7.247,8.456,12.145,14.357,15.016,17.719v-35.923h4.049v42.334h-4.049L241.537,229.884L241.537,229.884z"/>
		<path fill="#025E63" d="M299.25,229.884l-6.079-13.158h-22.109l-6.069,13.158h-4.728l20.418-42.345h3.551l19.575,42.345H299.25z
			 M282.373,193.441l-9.452,19.569h18.391L282.373,193.441z"/>
		<path fill="#025E63" d="M349.368,224.645c-4.228,3.554-9.966,5.413-17.213,5.413h-15.188v-42.36h17.546
			c7.089,0,12.484,1.86,16.2,5.74c3.545,3.715,5.4,8.778,5.4,15.532C356.111,215.542,353.921,220.944,349.368,224.645z
			 M347.672,195.797c-2.863-3.037-7.248-4.546-13.16-4.546h-13.33v34.917h11.144c6.243,0,10.963-1.525,14.512-4.38
			c3.369-2.862,5.224-7.271,5.224-12.987C351.897,203.048,350.546,198.678,347.672,195.797z"/>
		<path fill="#025E63" d="M372.995,229.884v-42.345h33.229v3.873H377.2V206.1h25.826v3.879H377.2v16.368h29.363v3.882h-33.568
			V229.884z"/>
		<path fill="#025E63" d="M457.704,229.884l-6.076-13.158h-22.11l-6.067,13.158h-4.729l20.408-42.345h3.563l19.556,42.345H457.704z
			 M440.818,193.441l-9.44,19.569h18.389L440.818,193.441z"/>
		<path fill="#025E63" d="M505.453,226.521c-3.041,2.529-7.595,3.88-13.663,3.88c-12.317,0-18.561-5.578-18.561-16.534v-26.327
			h4.033v26.327c0,8.425,4.898,12.82,14.529,12.82c9.606,0,14.501-4.223,14.501-12.492v-26.497h4.046v26.497
			C510.34,219.584,508.825,223.813,505.453,226.521z"/>
	</g>
</g>
</svg>
