<?xml version="1.0" encoding="utf-8"?>
<!-- Generator: Adobe Illustrator 15.1.0, SVG Export Plug-In . SVG Version: 6.00 Build 0)  -->
<!DOCTYPE svg PUBLIC "-//W3C//DTD SVG 1.1//EN" "http://www.w3.org/Graphics/SVG/1.1/DTD/svg11.dtd">
<svg version="1.1" id="Photo" xmlns="http://www.w3.org/2000/svg" xmlns:xlink="http://www.w3.org/1999/xlink" x="0px" y="0px"
	 width="288px" height="240.138px" viewBox="0 0 288 240.138" enable-background="new 0 0 288 240.138" xml:space="preserve">
<g>
	<path fill="#025E63" d="M208.369,34.401C186.495,24.537,181.998,0,181.998,0H92.4c0,18.82-20.621,31.451-25.951,34.401H0v184.401
		h288V34.401H208.369z"/>
	<polygon fill="#025E63" points="14.158,8.808 62.533,8.808 62.533,19.885 54.408,28.058 6.033,28.058 6.033,16.928 	"/>
	<path fill="#FFFFFF" d="M17.198,53.203h255.6v81.999H235.8c0,0-10.604-72.399-89.999-72.399c-74.204,0-91.604,61.505-91.604,72.399
		H17.198V53.203z"/>
	<path fill="#FFFFFF" stroke="#025E63" stroke-width="2.6733" stroke-miterlimit="10" d="M227.996,156.201
		c0,45.619-36.981,82.601-82.6,82.601s-82.603-36.981-82.603-82.601c0-45.618,36.985-82.598,82.603-82.598
		S227.996,110.583,227.996,156.201z M145.396,100.401c-30.814,0-55.8,24.984-55.8,55.799c0,30.815,24.985,55.8,55.8,55.8
		c30.816,0,55.801-24.984,55.801-55.8C201.197,125.386,176.213,100.401,145.396,100.401z"/>
	<rect x="112.397" y="10.003" fill="#FFFFFF" width="51.999" height="19.6"/>
</g>
</svg>
