<?xml version="1.0" encoding="utf-8"?>
<!-- Generator: Adobe Illustrator 15.1.0, SVG Export Plug-In . SVG Version: 6.00 Build 0)  -->
<!DOCTYPE svg PUBLIC "-//W3C//DTD SVG 1.1//EN" "http://www.w3.org/Graphics/SVG/1.1/DTD/svg11.dtd">
<svg version="1.1" id="Photo" xmlns="http://www.w3.org/2000/svg" xmlns:xlink="http://www.w3.org/1999/xlink" x="0px" y="0px"
	 width="290.4px" height="241.338px" viewBox="0 0 290.4 241.338" enable-background="new 0 0 290.4 241.338" xml:space="preserve">
<g>
	<path fill="#025E63" stroke="#025E63" stroke-width="2.4" stroke-miterlimit="10" d="M66.398,35.602c0,0,27.202-13.2,27.202-34.401
		h89.598c0,0,4.695,25.2,27.898,34.401"/>
	
		<rect x="1.2" y="35.602" fill="#025E63" stroke="#025E63" stroke-width="2.4" stroke-miterlimit="10" width="288" height="184.401"/>
	<polygon fill="#025E63" points="15.358,10.008 63.733,10.008 63.733,21.085 55.608,29.258 7.233,29.258 7.233,18.128 	"/>
</g>
<path fill="#FFFFFF" stroke="#025E63" stroke-width="2.4" stroke-miterlimit="10" d="M18.398,54.403h255.6v81.999H237
	c0,0-10.604-72.399-89.999-72.399c-74.204,0-91.604,61.505-91.604,72.399H18.398V54.403z"/>
<path fill="#FFFFFF" stroke="#025E63" stroke-width="2.6733" stroke-miterlimit="10" d="M229.196,157.401
	c0,45.619-36.981,82.601-82.6,82.601s-82.603-36.981-82.603-82.601c0-45.618,36.985-82.598,82.603-82.598
	S229.196,111.783,229.196,157.401z M146.597,101.602c-30.814,0-55.8,24.984-55.8,55.799c0,30.815,24.985,55.8,55.8,55.8
	c30.816,0,55.801-24.984,55.801-55.8C202.397,126.586,177.413,101.602,146.597,101.602z"/>
<rect x="113.597" y="11.203" fill="#FFFFFF" stroke="#025E63" stroke-width="2.4" stroke-miterlimit="10" width="51.999" height="19.6"/>
</svg>
