<?xml version="1.0" encoding="utf-8"?>
<!-- Generator: Adobe Illustrator 15.1.0, SVG Export Plug-In . SVG Version: 6.00 Build 0)  -->
<!DOCTYPE svg PUBLIC "-//W3C//DTD SVG 1.1//EN" "http://www.w3.org/Graphics/SVG/1.1/DTD/svg11.dtd">
<svg version="1.1" id="Video_Icon" xmlns="http://www.w3.org/2000/svg" xmlns:xlink="http://www.w3.org/1999/xlink" x="0px" y="0px"
	 width="288px" height="287.604px" viewBox="0 0 288 287.604" enable-background="new 0 0 288 287.604" xml:space="preserve">
<g>
	<path fill="#025E63" d="M275.549,0c0,0-228.922,45.411-252.431,50.113c-7.393,1.478-11.906,3.58-17.041,9.571
		c-8.316,9.702-5.681,18.208-5.681,52.292c0,15.174,0,133.452,0,137.031c0,3.58-0.658,14.595,11.246,26.498
		c11.903,11.903,23.537,12.099,27.039,12.099s206.573,0,212.901,0c6.329,0,16.237-3.787,25.627-13.177
		C286.6,265.037,288,250.563,288,245.272c0-5.292,0-163.723,0-163.723l-151.272-0.622l149.093-29.259L275.549,0z"/>
	<path fill="#FFFFFF" d="M242.556,259.486c-4.198,0-157.22,0-200.554,0c-3.614,0-6.777-0.136-10.168-3.527
		c-3.281-3.281-4.046-5.317-4.046-10.582c0-5.292,0-97.529,0-97.529h232.407c0,0,0,91.097,0,94.727c0,3.632,0.311,8.716-4.15,13.177
		C251.583,260.213,247.432,259.486,242.556,259.486z"/>
	<path fill="none" stroke="#00DDDD" stroke-width="0.3113" stroke-miterlimit="10" d="M260.195,239.566"/>
	<polygon fill="#025E63" points="189.797,201.812 158.689,220.881 127.581,239.949 127.581,201.812 127.581,163.673 
		158.689,182.742 	"/>
	<polygon fill="#FFFFFF" points="105.602,120.146 69.289,120.146 94.189,95.245 130.503,95.245 	"/>
	<polygon fill="#FFFFFF" points="92.992,76.042 128.608,68.962 99.331,49.395 63.714,56.476 	"/>
	<polygon fill="#FFFFFF" points="163.596,61.621 199.213,54.541 169.935,34.973 134.318,42.053 	"/>
	<polygon fill="#FFFFFF" points="233.941,47.511 269.558,40.43 240.28,20.862 204.663,27.943 	"/>
	<polygon fill="#FFFFFF" points="177.659,120.146 141.345,120.146 166.247,95.245 202.559,95.245 	"/>
	<polygon fill="#FFFFFF" points="249.715,120.146 213.402,120.146 238.302,95.245 274.616,95.245 	"/>
</g>
</svg>
