<?xml version="1.0" encoding="utf-8"?>
<!-- Generator: Adobe Illustrator 15.1.0, SVG Export Plug-In . SVG Version: 6.00 Build 0)  -->
<!DOCTYPE svg PUBLIC "-//W3C//DTD SVG 1.1//EN" "http://www.w3.org/Graphics/SVG/1.1/DTD/svg11.dtd">
<svg version="1.1" id="Vimeo" xmlns="http://www.w3.org/2000/svg" xmlns:xlink="http://www.w3.org/1999/xlink" x="0px" y="0px"
	 width="288px" height="288px" viewBox="0 0 288 288" enable-background="new 0 0 288 288" xml:space="preserve">
<g>
	<path fill-rule="evenodd" clip-rule="evenodd" fill="#54B2AE" d="M141.253,0.744c5.598-0.22,11.169,0.104,16.554,0.625
		c13.563,1.313,25.664,4.326,36.544,8.434c10.77,4.065,20.768,9.242,29.671,15.304c14.355,9.773,26.374,21.512,36.482,35.482
		c7.516,10.388,13.754,22.188,18.491,35.482c4.323,12.137,7.315,25.63,8.058,41.291c0.562,11.857-0.534,25.176-2.873,36.168
		c-4.253,19.971-11.766,36.048-21.428,50.536c-3.602,5.402-7.602,10.373-11.806,15.18c-6.971,7.971-14.956,15.018-23.676,21.303
		c-6.949,5.007-14.484,9.481-22.675,13.306c-8.151,3.804-17.012,7.056-26.612,9.369c-4.771,1.15-9.892,2.056-15.18,2.812
		c-15.789,2.256-33.546,1.321-48.475-1.812c-19.917-4.181-36.101-11.802-50.536-21.427c-3.578-2.386-7.003-5.011-10.307-7.684
		c-8.271-6.69-15.736-14.247-22.301-22.676c-14.354-18.433-25.343-40.741-29.297-69.652c-1.446-10.568-1.641-21.683-0.562-32.607
		c1.603-16.222,5.678-30.639,10.995-42.978c5.428-12.596,12.299-23.633,20.427-33.545c2.726-3.325,5.47-6.594,8.433-9.558
		c6.047-6.048,12.293-11.542,19.365-16.616c13.882-9.961,30.102-18.003,49.287-22.676c8.442-2.057,17.405-3.441,27.548-3.936
		C138.668,0.806,139.962,0.794,141.253,0.744z M86.969,121.994c0.94-0.553,1.974-1.201,2.999-1.437
		c0.119-0.027,0.199-0.057,0.312-0.063c1.854-0.101,3.398,1.165,4.623,2.437c1.281,1.33,2.125,2.687,2.936,4.123
		c1.755,3.112,3.042,6.539,4.186,9.995c2.372,7.167,4.27,14.844,6.247,22.051c1.985,7.236,4.025,14.907,6.059,22.238
		c0.515,1.853,0.965,3.71,1.625,5.436c1.974,5.165,4.284,10.032,7.246,14.055c3.445,4.677,8.248,9.027,15.93,8.184
		c1.005-0.111,2.067-0.273,3.061-0.5c5.696-1.304,10.279-4.009,14.367-6.872c1.408-0.984,2.819-1.944,4.124-2.998
		c10.571-8.54,18.906-18.733,27.173-29.485c4.062-5.248,8.078-10.733,11.807-16.491c3.689-5.697,7.303-11.774,10.182-18.178
		c2.116-4.707,4.219-10.153,5.185-16.055c0.512-3.121,0.555-5.927,0.499-9.37c-0.119-7.526-2.254-13.969-6.308-18.178
		c-1.816-1.743-4.207-3.231-7.122-4.186c-4.075-1.334-9.23-1.519-13.93-1c-4.078,0.451-7.462,1.416-10.62,2.811
		c-12.368,5.466-19.124,16.778-23.362,30.359c2.641-1.003,5.886-2.071,9.558-2.186c3.912-0.123,7.05,0.663,8.808,2.936
		c1.424,1.637,1.949,4.16,1.999,6.559c0.107,5.09-1.859,9.549-3.686,13.431c-0.926,1.969-1.999,3.975-3.062,5.809
		c-2.099,3.627-4.391,7.2-6.934,10.683c-1.194,1.633-2.435,3.245-3.997,4.809c-1.402,1.402-4.131,4.58-6.997,3.249
		c-2.144-0.995-3.672-3.986-4.748-6.497c-1.166-2.718-2.017-5.604-2.811-8.494c-3.297-12.025-5.049-24.847-7.183-37.918
		c-0.538-3.295-1.081-6.392-1.999-9.246c-0.93-2.893-2.039-5.482-3.561-7.747c-2.963-4.405-7.452-7.972-15.242-7.183
		c-3.119,0.315-5.922,1.861-8.12,3.123c-3.557,2.041-6.832,4.585-9.87,7.059c-2.085,1.698-4.045,3.484-5.998,5.248
		c-4.982,4.5-9.845,8.83-14.992,13.306c-0.958,0.999-2.123,1.792-3.061,2.811c1.956,2.515,4.042,5.085,5.935,7.558
		c0.281,0.368,0.479,0.809,0.874,1.062C81.494,125.548,84.31,123.556,86.969,121.994z"/>
	<path fill-rule="evenodd" clip-rule="evenodd" fill="#FFFFFF" d="M79.098,127.241c-0.395-0.253-0.593-0.694-0.874-1.062
		c-1.893-2.473-3.979-5.043-5.935-7.558c0.938-1.019,2.103-1.812,3.061-2.811c5.146-4.476,10.01-8.806,14.992-13.306
		c1.953-1.763,3.913-3.549,5.998-5.248c3.038-2.474,6.313-5.018,9.87-7.059c2.198-1.262,5.001-2.808,8.12-3.123
		c7.79-0.789,12.279,2.778,15.242,7.183c1.522,2.265,2.631,4.854,3.561,7.747c0.918,2.854,1.461,5.95,1.999,9.246
		c2.134,13.071,3.886,25.893,7.183,37.918c0.794,2.89,1.646,5.776,2.811,8.494c1.076,2.511,2.604,5.502,4.748,6.497
		c2.866,1.331,5.595-1.847,6.997-3.249c1.562-1.563,2.803-3.176,3.997-4.809c2.543-3.482,4.835-7.056,6.934-10.683
		c1.062-1.834,2.136-3.84,3.062-5.809c1.826-3.882,3.793-8.341,3.686-13.431c-0.05-2.398-0.575-4.921-1.999-6.559
		c-1.758-2.273-4.896-3.059-8.808-2.936c-3.672,0.115-6.917,1.183-9.558,2.186c4.238-13.581,10.994-24.894,23.362-30.359
		c3.158-1.396,6.542-2.36,10.62-2.811c4.699-0.52,9.854-0.335,13.93,1c2.915,0.955,5.306,2.442,7.122,4.186
		c4.054,4.209,6.188,10.652,6.308,18.178c0.056,3.442,0.013,6.249-0.499,9.37c-0.966,5.902-3.068,11.348-5.185,16.055
		c-2.879,6.404-6.492,12.48-10.182,18.178c-3.729,5.758-7.745,11.243-11.807,16.491c-8.267,10.752-16.602,20.945-27.173,29.485
		c-1.305,1.054-2.716,2.014-4.124,2.998c-4.088,2.863-8.671,5.568-14.367,6.872c-0.993,0.227-2.056,0.389-3.061,0.5
		c-7.682,0.844-12.484-3.507-15.93-8.184c-2.962-4.022-5.272-8.89-7.246-14.055c-0.659-1.726-1.11-3.583-1.625-5.436
		c-2.034-7.331-4.074-15.002-6.059-22.238c-1.977-7.207-3.875-14.885-6.247-22.051c-1.144-3.456-2.43-6.883-4.186-9.995
		c-0.81-1.436-1.654-2.793-2.936-4.123c-1.225-1.271-2.769-2.538-4.623-2.437c-0.113,0.006-0.193,0.036-0.312,0.063
		c-1.025,0.235-2.058,0.884-2.999,1.437C84.31,123.556,81.494,125.548,79.098,127.241z"/>
</g>
</svg>
