<?xml version="1.0" encoding="utf-8"?>
<!-- Generator: Adobe Illustrator 15.1.0, SVG Export Plug-In . SVG Version: 6.00 Build 0)  -->
<!DOCTYPE svg PUBLIC "-//W3C//DTD SVG 1.1//EN" "http://www.w3.org/Graphics/SVG/1.1/DTD/svg11.dtd">
<svg version="1.1" id="Layer_1" xmlns="http://www.w3.org/2000/svg" xmlns:xlink="http://www.w3.org/1999/xlink" x="0px" y="0px"
	 width="288px" height="288px" viewBox="0 0 288 288" enable-background="new 0 0 288 288" xml:space="preserve">
<path fill="#98CEDA" d="M143.999,288C223.527,288,288,223.524,288,143.996C288,64.472,223.527,0,143.999,0
	C64.48,0,0,64.472,0,143.996C0,223.524,64.48,288,143.999,288"/>
<path fill="#FFFFFF" d="M215.916,113.932c-0.627,14.002-10.433,33.148-29.343,57.436c-19.58,25.404-36.167,38.091-49.718,38.091
	c-8.384,0-15.486-7.722-21.291-23.217c-3.885-14.209-7.747-28.427-11.625-42.602c-4.316-15.502-8.938-23.246-13.882-23.246
	c-1.076,0-4.829,2.261-11.295,6.784l-6.771-8.727c7.094-6.222,14.089-12.473,20.985-18.699c9.45-8.186,16.553-12.477,21.298-12.924
	c11.171-1.083,18.067,6.562,20.663,22.908c2.769,17.653,4.721,28.628,5.796,32.932c3.233,14.627,6.772,21.928,10.648,21.928
	c3.003,0,7.524-4.721,13.552-14.181c6.028-9.474,9.245-16.676,9.683-21.637c0.86-8.173-2.363-12.241-9.683-12.241
	c-3.439,0-6.993,0.728-10.647,2.253c7.109-23.024,20.662-34.214,40.67-33.561C209.789,85.647,216.784,95.23,215.916,113.932z"/>
</svg>
