<?xml version="1.0" encoding="utf-8"?>
<!-- Generator: Adobe Illustrator 18.0.0, SVG Export Plug-In . SVG Version: 6.00 Build 0)  -->
<!DOCTYPE svg PUBLIC "-//W3C//DTD SVG 1.1//EN" "http://www.w3.org/Graphics/SVG/1.1/DTD/svg11.dtd">
<svg version="1.1" id="Logo" xmlns="http://www.w3.org/2000/svg" xmlns:xlink="http://www.w3.org/1999/xlink" x="0px" y="0px"
	 viewBox="0 0 1836 1188" enable-background="new 0 0 1836 1188" xml:space="preserve">
<g>
	<g>
		<g>
			<path fill="#4D4A47" d="M966.1,412.4c20.1-3.8,48.4-5.6,71.9-5.6c40.5,0,46.7,37.8,41.1,77c-5.9,41.7-22.9,68.7-60.8,68.7
				c-12.1,0-31-2.8-43-10.1l-12.9,80.1h-30.9L966.1,412.4z M1016.8,526.1c13.8-1.6,25-7.6,31.4-47.6c5.1-31.8-1.3-46.3-17.5-46.3
				h-37L979,520.5C987.8,524.5,1002,528.4,1016.8,526.1z"/>
			<path fill="#4D4A47" d="M1169.7,405.2c31.8-0.1,57,8.9,54.1,41c-5.3,62.6-87,50.4-96.9,46.4c-4.3,25.9,0.9,33.2,19.9,33.4
				c17.6,1,43.1-1.4,61.3-4.2l-3.6,22.5c-21.9,6.3-44.6,8.9-71.6,7.8c-34.2-1-44.4-28.1-34.8-80.1
				C1106.3,428.2,1117.4,405.4,1169.7,405.2z M1192.1,449.5c2.7-15.4-6.3-18-24.5-17.9c-31.6,0.2-34,19.9-37.9,40
				C1129.7,471.6,1187,479.5,1192.1,449.5z"/>
			<path fill="#4D4A47" d="M1297.2,405.7c12.1,0,31.5,3.5,45,9.8l12.1-75.7h30.7l-33.4,210.3h-24.8l-3.8-14.9
				c-9.2,6.4-29.6,16.5-47,16.5c-35.5,0-43.8-37.8-37.3-75.8C1245.3,437,1257.4,405.7,1297.2,405.7z M1284.9,524.1
				c16.7,0,30.4-4.6,41.6-10.1l12.1-76.5c-12.2-4.2-23.6-5.9-39.3-5.9c-13.1,0-22.8,8.1-29.2,47.1
				C1264.8,510.6,1270.6,524.1,1284.9,524.1z"/>
			<path fill="#4D4A47" d="M1449.7,405.2c19.9-1.6,53.8,3.5,67.5,16.6L1498.4,550h-23.6l-4.7-15.1c-7.3,7.4-27.1,17-45.5,17
				c-28.8,0-49.6-18.5-38.7-79.4C1396.6,413.9,1425.7,406.9,1449.7,405.2z M1433.3,524.4c17.3,0,27.2-5.1,39.4-13.2l11.6-76.5
				c-11.2-3.4-25.9-5-34.9-3.2c-14,2.7-26.7,6.5-33.2,47.9C1411.4,510,1415.1,524.4,1433.3,524.4z"/>
			<path fill="#4D4A47" d="M1555.6,340.4h31.1l-24.5,155.4c-3.8,23.7,0.5,26.2,9.2,28.9c0,0,16.4,5.1,17.3,5.1l-3.3,20.4h-22
				c-25.5,0-38.5-14.9-33-50.6L1555.6,340.4z"/>
		</g>
		<g>
			<path fill="#4D4A47" d="M718.2,658.7c20.1-3.8,48.4-5.6,71.9-5.6c40.5,0,46.7,37.8,41.1,77c-5.9,41.7-22.9,68.7-60.8,68.7
				c-12.1,0-31-2.8-43-10.1l-12.9,80.1h-30.9L718.2,658.7z M768.9,772.4c13.8-1.6,25-7.6,31.4-47.6c5.1-31.8-1.3-46.3-17.5-46.3h-37
				l-14.6,88.3C739.9,770.8,754.1,774.7,768.9,772.4z"/>
			<path fill="#4D4A47" d="M925.2,652.6c46.7,0,61.3,24.7,52.8,77.1c-8.7,52.8-25.1,68.1-73.4,68.1c-47.5,0-62.8-21.9-54.8-72.8
				C859,666.8,877.7,652.6,925.2,652.6z M907,771.4c23.4,0,33.1-3.2,40-44.1c6.7-40.6,0.3-48.4-25.3-48.4c-25,0-33.7,5.6-40.7,48.4
				C874.3,767.1,884.2,771.4,907,771.4z"/>
			<path fill="#4D4A47" d="M1028.3,654.2l19.5,106l39.9-78.7c3.5-7.2,6.5-14.2,8-26.9h26.8c2.7,10.4,1.4,20.3-2.7,29.8l-5.6,12.8
				l12,62l41.1-78.2c3.5-7.2,6.5-14.2,8-26.9h27c3.1,13,0,25.8-5.3,35.5l-58.4,106.9h-33.5l-12.3-62.1l-31,62.1h-36.2l-29.5-142.3
				H1028.3z"/>
			<path fill="#4D4A47" d="M1282.8,651.5c31.8-0.1,57,8.9,54.1,41c-5.3,62.6-87,50.4-96.9,46.4c-4.3,25.9,0.9,33.2,19.9,33.4
				c17.6,1,43.1-1.4,61.3-4.2l-3.6,22.5c-21.9,6.3-44.6,8.9-71.6,7.8c-34.2-1-44.4-28.1-34.8-80.1
				C1219.5,674.6,1230.6,651.7,1282.8,651.5z M1305.3,695.8c2.7-15.4-6.3-18-24.5-17.9c-31.6,0.2-34,19.9-37.9,40
				C1242.8,717.9,1300.1,725.8,1305.3,695.8z"/>
			<path fill="#4D4A47" d="M1366.1,654.2h25.2l2.9,18c13.8-9.5,29.2-19.5,48.5-19.5c6.7,0,13.7,0.3,17,1.9l-4.8,30.1
				c-3.6-0.5-12.2-1-20.1-1c-17.7,0-29.4,3.7-44.8,15.7l-15.4,97.1h-31.1L1366.1,654.2z"/>
		</g>
	</g>
	<g>
		<g>
			<polygon fill="#4D4A47" points="364.3,529.8 364.3,529.8 364.3,529.8 			"/>
			<path fill="#4D4A47" d="M458.7,577.5c-22.9-31.1-58.4-47.6-94.3-47.6c0,0,0,0,0,0c-24.1,0-48.5,7.4-69.4,22.8
				c-33.9,25-50.4,64.8-47.2,103.9l0.1,166l36.3-26.9l0.2-63.3c22.1,20.8,51,31.6,80.2,31.6c24.1,0,48.5-7.4,69.4-22.8
				C485.9,702.8,497,629.5,458.7,577.5z M414.3,714.6c-14.6,10.7-31.8,16.4-49.8,16.4c-27.1,0-51.8-12.5-67.8-34.2
				c-13.3-18.1-18.8-40.3-15.4-62.5c3.4-22.2,15.2-41.8,33.3-55.1c14.6-10.7,31.8-16.4,49.8-16.4h0c27.1,0,51.8,12.5,67.8,34.2
				C459.6,634.4,451.6,687.1,414.3,714.6z"/>
		</g>
		<g>
			<polygon fill="#4D4A47" points="642.2,325.2 642.2,325.2 642.2,325.2 			"/>
			<path fill="#4D4A47" d="M736.5,372.8c-22.9-31.1-58.4-47.6-94.3-47.6h0c-24.1,0-48.5,7.4-69.4,22.8
				c-34,25.1-50.5,65.1-47.2,104.3l0.1,171.9l36.3-26.9l0.2-69.6c22.1,20.7,51,31.6,80.1,31.6c24.1,0,48.5-7.4,69.4-22.8
				C763.8,498.2,774.9,424.9,736.5,372.8z M725.4,454.9c-3.4,22.2-15.2,41.8-33.3,55.1c-14.6,10.7-31.8,16.4-49.8,16.4
				c-27.1,0-51.8-12.5-67.8-34.2c-27.5-37.3-19.5-90.1,17.8-117.6c14.6-10.7,31.8-16.4,49.8-16.4h0c27.1,0,51.8,12.5,67.8,34.2
				C723.3,410.5,728.8,432.7,725.4,454.9z"/>
		</g>
		<path fill="#4D4A47" d="M291.5,506.3c0,0-2.3-20.7,35.4-34.5c37.8-13.8,60-19.1,60-19.1s7.7,2.1-2.4,9.6
			c-7.5,5.6-59.7,45.5-67.4,50.3C309.4,517.2,294.6,521.2,291.5,506.3z"/>
		<g>
			<path fill="#4D4A47" d="M489.5,619.6l0,0.2C489.5,619.7,489.5,619.7,489.5,619.6z"/>
			<path fill="#4D4A47" d="M498.1,500.1c-19.7-50.4,7.7-102.4,8-102.9l-32.2,23.8l0,0l-80.4,59.3l0,0l-33.8,24.9
				c2.2,0,61.4,0.6,96.6,45.6c31.6,40.4,33.3,65.9,33.3,68.8l5-48.6c0,0-0.5-4.2-19.8-34.4c-12.9-20.1-36.1-34.8-53.5-44.1
				l44.7-32.9c-1.1,15.5,1.8,32.9,9.4,50.5c5.9,13.8,21.6,30.8,31.5,43c0.5,0.6,1.2,1.1,1.8,1.7c1.5,1.4,8,6.8,8,6.8v-33
				c0,0-3.1-2.6-3.9-3.5c-0.8-1-1.7-2-2.5-3.1C505.4,515.8,501,507.5,498.1,500.1z"/>
		</g>
		<polygon fill="#4D4A47" points="368.7,858.1 310.8,873.5 833.2,467.8 869.6,469.8 		"/>
		<path fill="#4D4A47" d="M548.1,350.6c-1,5.7-6.4,9.5-12.1,8.5c-4.7-0.8-8.1-4.7-8.6-9.2L495.3,374c-1.9,1.8-4.4,2.9-7.3,2.9
			c-5.8,0-10.5-4.7-10.5-10.5c0-3.5,1.7-6.6,4.3-8.5l-0.1-0.1l58-43.5l6.2,3.7C553,322.5,551.9,328.4,548.1,350.6z"/>
	</g>
</g>
</svg>
